.
..............................Site Info...........................

 -   http://www.scenetime.com  *_*    

Scenetime .Always on time . friendly online private torrent community ..

     We care to share . Join us on  http://www.scenetime.com 

    Be the first to get new release at  http://www.scenetime.com

        Seed back for speed


...................................NFO:.................................................                                                                                                     
       
     
     
       
       
     
     
                                         
                                         
                EXVID                    
                                         
         
                                         
         Filled the Archives             
                                         
         
                                         
                With:                    
                                         
         
                                         
                                    
     E240                           
                                    
     SP               (C) 2009      
                                         
     
     
     
                                                                                  
                                                                                   
                   Skyline.2010.WS.DVDRip.XviD-EXViD                                
                                                                                   
                                                                                  
     
                                                                                               
EXViD aims to iNTERNAL those releases which have been lost in the archives.
EXViD aims to PRE non-internal releases which have poor sources and are likely skipped by others. 
http://www.imdb.com/title/tt1564585/
Subtitles: NL, FR
Date: 2012.10

Directors: Colin Strause, Greg Strause

Genre: Action | Sci-Fi | Thriller

Plot:
Strange lights descend on the city of Los Angeles, drawing people outside like moths to a
flame where an extraterrestrial force threatens to swallow the entire human population off
the face of the Earth.

Cast:
Eric Balfour	 ...	Jarrod
Scottie Thompson	 ...	Elaine
Brittany Daniel	 ...	Candice
Crystal Reed	 ...	Denise
Neil Hopkins	 ...	Ray
David Zayas	 ...	Oliver
Donald Faison	 ...	Terry
Robin Gammell	 ...	Walt
Tanya Newbould	 ...	Jen
J. Paul Boehmer	 ...	Colin
Phet Mahathongdy	 ...	Airplane Mom / Bartender (as Phet Mahathongdy O'Donnell)
Byron McIntyre	 ...	Limo Driver
Jackie Marin	 ...	Girl in Pool
Tony Black	 ...	Guy at Party
Eliza Till	 ...	Girl at Party

Stats:
Format                           : AVI
Format/Info                      : Audio Video Interleave
File size                        : 698 MiB
Duration                         : 1h 28mn
Overall bit rate                 : 1 099 Kbps
Writing application              : Nandub v1.0rc2
Writing library                  : Nandub build 1852/release

Video
ID                               : 0
Format                           : MPEG-4 Visual
Format profile                   : Advanced Simple@L5
Format settings, BVOP            : 2
Format settings, QPel            : No
Format settings, GMC             : No warppoints
Format settings, Matrix          : Default (H.263)
Codec ID                         : XVID
Codec ID/Hint                    : XviD
Duration                         : 1h 28mn
Bit rate                         : 964 Kbps
Width                            : 640 pixels
Height                           : 272 pixels
Display aspect ratio             : 2.35:1
Frame rate                       : 25.000 fps
Color space                      : YUV
Chroma subsampling               : 4:2:0
Bit depth                        : 8 bits
Scan type                        : Progressive
Compression mode                 : Lossy
Bits/(Pixel*Frame)               : 0.222
Stream size                      : 612 MiB (88%)
Writing library                  : XviD 64

Audio
ID                               : 1
Format                           : MPEG Audio
Format version                   : Version 1
Format profile                   : Layer 3
Mode                             : Joint stereo
Mode extension                   : MS Stereo
Codec ID                         : 55
Codec ID/Hint                    : MP3
Duration                         : 1h 28mn
Bit rate mode                    : Variable
Bit rate                         : 122 Kbps
Nominal bit rate                 : 128 Kbps
Channel(s)                       : 2 channels
Sampling rate                    : 48.0 KHz
Compression mode                 : Lossy
Stream size                      : 77.2 MiB (11%)
Alignment                        : Aligned on interleaves
Interleave, duration             : 24 ms (0.60 video frame)
Interleave, preload duration     : 145 ms
Writing library                  : LAME3.98r
Encoding settings                : -m j -V 4 -q 3 -lowpass 17 --abr 128




Release notes:
ARROW rip was 1.82:1. Ours is 2.35:1.

enjoy!

Looking for:
75TB+ Archives
DUTCH/FLEMiSH Archives
                                                                                                    
Greets: CRBS EPiSODE FiCO FLS iLS KLASSiGER LiPSYNC MADE NODLABS RUNNER SPRiNTER      
   

                                                                    ASCII DONE BY XX^NFO 2oo9     
 
 	 		
RLS-Crc: 415243414445:42EECD90